<?xml version="1.0" encoding="iso-8859-1"?>
<!-- Uploaded to: SVG Repo, www.svgrepo.com, Generator: SVG Repo Mixer Tools -->
<svg height="800px" width="800px" version="1.1" id="Layer_1" xmlns="http://www.w3.org/2000/svg" xmlns:xlink="http://www.w3.org/1999/xlink" 
	 viewBox="0 0 392.475 392.475" xml:space="preserve">
<path style="fill:#FFFFFF;" d="M370.236,186.392c-4.719-84.17-71.37-154.246-155.152-163.038
	c-23.984-2.651-45.382-2.844-53.463,9.503c-7.434,9.956-5.818,26.764,9.632,35.103c26.828,11.96,43.442,39.822,41.309,69.107
	c-2.521,35.232-32.194,63.741-67.556,64.905c-25.6,0.776-48.808-11.83-62.061-33.487c-4.202-6.853-10.731-11.184-18.036-11.96
	c-34.392-1.228-46.545,25.406-42.085,51.782c5.947,89.018,80.549,160.259,169.826,162.198
	C300.547,369.858,374.955,287.37,370.236,186.392z"/>
<path style="fill:#FFC10D;" d="M348.773,187.62C333.84,50.893,205.064,36.929,180.046,45.01c-1.164,1.034-1.034,2.004,0.323,3.038
	c35.168,15.709,51.135,52.105,54.174,90.57c-3.556,62.642-63.03,85.463-88.63,85.139c-18.23,2.004-58.44-8.21-81.39-43.83
	c-12.606-8.275-19.265,5.107-20.17,13.576c-5.818,53.333,45.899,155.216,148.881,155.216c1.164,0,63.03,4.59,114.036-47.709
	C336.361,270.303,351.036,230.093,348.773,187.62z"/>
<path style="fill:#194F82;" d="M391.957,185.163C386.656,90.521,311.602,11.588,217.412,1.697
	c-34.844-3.814-58.053-1.875-73.568,18.554c-14.933,19.265-10.667,54.562,18.554,67.556c18.489,8.275,29.996,27.41,28.509,47.709
	c-1.745,24.242-22.174,43.895-46.61,44.735c0,0-27.604,1.681-42.796-23.014c-7.822-12.671-20.17-21.721-34.263-22.238
	C4.337,132.477-3.55,190.594,1.105,209.794C7.763,309.996,91.675,390.093,192.2,392.355
	C323.755,393.39,399.521,282.133,391.957,185.163z M192.588,370.57c-89.341-1.939-163.879-73.18-169.826-162.198
	c-4.396-26.246,7.758-53.01,42.085-51.782c7.24,0.776,13.834,5.172,18.036,11.96c13.317,21.657,36.461,34.263,62.061,33.487
	c35.362-1.164,65.034-29.673,67.556-64.905c2.069-29.349-14.545-57.083-41.309-69.107c-15.386-8.339-17.002-25.083-9.632-35.103
	c8.145-12.347,29.608-12.154,53.463-9.503c83.717,8.792,150.432,78.869,155.152,163.038
	C374.955,287.37,300.547,369.858,192.588,370.57z"/>
<path style="fill:#FFFFFF;" d="M279.602,131.054c7.887,0,14.287-6.4,14.287-14.287s-6.4-14.287-14.287-14.287
	s-14.287,6.4-14.287,14.287C265.315,124.654,271.715,131.054,279.602,131.054z"/>
<path style="fill:#56ACE0;" d="M287.683,247.935c7.887,0,14.287-6.4,14.287-14.287s-6.4-14.287-14.287-14.287
	s-14.287,6.4-14.287,14.287S279.796,247.935,287.683,247.935z"/>
<path style="fill:#FFFFFF;" d="M216.313,301.01c0-7.887-6.4-14.287-14.287-14.287c-7.887,0-14.287,6.4-14.287,14.287
	c0,7.887,6.4,14.287,14.287,14.287C209.913,315.297,216.313,308.897,216.313,301.01z"/>
<path style="fill:#56ACE0;" d="M114.301,258.796c0-7.887-6.4-14.287-14.287-14.287s-14.287,6.4-14.287,14.287
	c0,7.887,6.4,14.287,14.287,14.287S114.301,266.747,114.301,258.796z"/>
<g>
	<path style="fill:#194F82;" d="M279.602,152.84c19.911,0,36.073-16.226,36.073-36.073s-16.226-36.073-36.073-36.073
		c-19.846,0-36.073,16.226-36.073,36.073S259.755,152.84,279.602,152.84z M279.602,102.481c7.887,0,14.287,6.4,14.287,14.287
		s-6.4,14.287-14.287,14.287s-14.287-6.4-14.287-14.287S271.715,102.481,279.602,102.481z"/>
	<path style="fill:#194F82;" d="M287.683,197.511c-19.911,0-36.073,16.226-36.073,36.073s16.226,36.073,36.073,36.073
		c19.911,0,36.073-16.226,36.073-36.073S307.658,197.511,287.683,197.511z M287.683,248c-7.887,0-14.287-6.4-14.287-14.287
		s6.4-14.287,14.287-14.287s14.287,6.4,14.287,14.287S295.569,248,287.683,248z"/>
	<path style="fill:#194F82;" d="M201.897,264.937c-19.911,0-36.073,16.226-36.073,36.073c0,19.911,16.226,36.073,36.073,36.073
		s36.073-16.226,36.073-36.073C238.034,281.034,221.872,264.937,201.897,264.937z M201.897,315.297
		c-7.887,0-14.287-6.4-14.287-14.287c0-7.887,6.4-14.287,14.287-14.287c7.887,0,14.287,6.4,14.287,14.287
		C216.248,308.897,209.784,315.297,201.897,315.297z"/>
	<path style="fill:#194F82;" d="M100.014,222.788c-19.911,0-36.073,16.226-36.073,36.073c0,19.911,16.226,36.073,36.073,36.073
		s36.073-16.226,36.073-36.073C136.087,238.949,119.86,222.788,100.014,222.788z M100.014,273.212
		c-7.887,0-14.287-6.4-14.287-14.287s6.4-14.287,14.287-14.287s14.287,6.4,14.287,14.287S107.901,273.212,100.014,273.212z"/>
</g>
</svg>